Coordinates
version=1
nRows=41
nColumns=38
inDegrees=no

Units are S.I. units (second, meters, Newtons, ...)
If the header above contains a line with 'inDegrees', this indicates whether rotational values are in degrees (yes) or radians (no).

endheader
time	pelvis_tilt	pelvis_list	pelvis_rotation	pelvis_tx	pelvis_ty	pelvis_tz	hip_flexion_r	hip_adduction_r	hip_rotation_r	knee_angle_r	ankle_angle_r	subtalar_angle_r	mtp_angle_r	hip_flexion_l	hip_adduction_l	hip_rotation_l	knee_angle_l	ankle_angle_l	subtalar_angle_l	mtp_angle_l	lumbar_extension	lumbar_bending	lumbar_rotation	arm_flex_r	arm_add_r	arm_rot_r	elbow_flex_r	pro_sup_r	wrist_flex_r	wrist_dev_r	arm_flex_l	arm_add_l	arm_rot_l	elbow_flex_l	pro_sup_l	wrist_flex_l	wrist_dev_l
20	3.04078	1.4744	-1.3432	0.555503	1.24056	1.08926	0.183929	-0.0230678	-0.0322148	0.428636	-0.471006	0	0	-0.0968745	-0.00719743	-0.203748	0.337886	-0.279134	0	0	-0.175892	0.0426257	0.0247328	0.326777	-0.392627	0.286188	1.36969	1.5708	0	0	0.189875	-0.0845675	0.116916	1.36028	1.5708	0	0
20.01	3.08134	1.47665	-1.37867	0.556182	1.24479	1.08869	0.178009	-0.0268456	-0.0360641	0.422241	-0.469837	0	0	-0.0950127	-0.00508947	-0.198639	0.345433	-0.276597	0	0	-0.170665	0.0379704	0.0212837	0.324299	-0.388545	0.287117	1.36793	1.5708	0	0	0.189695	-0.0897403	0.118103	1.3584	1.5708	0	0
20.02	3.11199	1.47706	-1.4039	0.556808	1.24918	1.08841	0.168357	-0.0292271	-0.0425477	0.412941	-0.466353	0	0	-0.0949216	-0.00470201	-0.194191	0.353067	-0.274246	0	0	-0.167214	0.0346776	0.0175006	0.32169	-0.384416	0.28776	1.36663	1.5708	0	0	0.188815	-0.0942778	0.11852	1.35719	1.5708	0	0
20.03	3.12924	1.47727	-1.4156	0.557394	1.25359	1.08828	0.158373	-0.030359	-0.0505602	0.403049	-0.462555	0	0	-0.0944643	-0.00582973	-0.189604	0.361375	-0.271894	0	0	-0.163912	0.0329281	0.0136634	0.319161	-0.380698	0.288656	1.36553	1.5708	0	0	0.187648	-0.0986348	0.119046	1.35594	1.5708	0	0
20.04	3.13217	1.4776	-1.41315	0.558071	1.25791	1.08828	0.149873	-0.0300918	-0.0592908	0.395488	-0.459337	0	0	-0.0931571	-0.0085563	-0.184641	0.370465	-0.269678	0	0	-0.160721	0.0325588	0.0100914	0.316905	-0.377122	0.289736	1.36442	1.5708	0	0	0.186388	-0.102717	0.119291	1.35463	1.5708	0	0
20.05	3.12273	1.47856	-1.39889	0.558878	1.26216	1.08834	0.143697	-0.0284277	-0.0678615	0.391415	-0.456442	0	0	-0.0906051	-0.0124398	-0.179645	0.380137	-0.267411	0	0	-0.157047	0.0332768	0.00705438	0.314908	-0.373733	0.291434	1.36294	1.5708	0	0	0.184762	-0.106185	0.118644	1.35309	1.5708	0	0
20.06	3.10535	1.48049	-1.37791	0.55982	1.26642	1.08837	0.140015	-0.0260072	-0.0752105	0.389868	-0.454158	0	0	-0.086875	-0.0168145	-0.175278	0.389988	-0.265009	0	0	-0.152305	0.034496	0.00480928	0.313147	-0.370549	0.294213	1.36095	1.5708	0	0	0.182294	-0.109351	0.117163	1.35161	1.5708	0	0
20.07	3.08185	1.48274	-1.35182	0.56087	1.27064	1.08839	0.137176	-0.0228172	-0.0817235	0.388837	-0.451979	0	0	-0.0825639	-0.021598	-0.171519	0.400162	-0.262474	0	0	-0.147306	0.0361115	0.00307173	0.311959	-0.36767	0.298066	1.35891	1.5708	0	0	0.17916	-0.112342	0.114969	1.35054	1.5708	0	0
20.08	3.05437	1.48366	-1.3216	0.561861	1.27464	1.08848	0.132685	-0.0190793	-0.0889378	0.386534	-0.450145	0	0	-0.0788558	-0.0268448	-0.167358	0.411201	-0.259546	0	0	-0.144097	0.0386031	0.000754636	0.312231	-0.365374	0.303218	1.35713	1.5708	0	0	0.176321	-0.115127	0.11234	1.35004	1.5708	0	0
20.09	3.03109	1.4825	-1.29538	0.562831	1.27829	1.08867	0.125947	-0.0156931	-0.0968406	0.382712	-0.449436	0	0	-0.0765274	-0.0320897	-0.162286	0.422935	-0.25699	0	0	-0.144061	0.0415435	-0.00179983	0.314061	-0.363686	0.308862	1.35612	1.5708	0	0	0.17486	-0.118038	0.109862	1.35011	1.5708	0	0
20.1	3.04615	1.47278	-1.30706	0.564031	1.28097	1.08964	0.109853	-0.0134976	-0.10629	0.378475	-0.448695	0	0	-0.0826445	-0.0362892	-0.156505	0.435212	-0.254753	0	0	-0.156074	0.0436157	-0.00502844	0.321695	-0.361714	0.316012	1.3545	1.5708	0	0	0.178392	-0.122207	0.107628	1.35059	1.5708	0	0
20.11	3.02788	1.47534	-1.28715	0.565339	1.28455	1.08923	0.10757	-0.0113472	-0.113404	0.375193	-0.447511	0	0	-0.0748603	-0.0405873	-0.152695	0.449934	-0.251152	0	0	-0.151449	0.0450665	-0.0069832	0.323092	-0.359189	0.322048	1.35284	1.5708	0	0	0.175793	-0.124704	0.103273	1.35075	1.5708	0	0
20.12	3.01154	1.47776	-1.27006	0.566944	1.28813	1.0888	0.1044	-0.0087026	-0.117921	0.369519	-0.446627	0	0	-0.0669769	-0.0450442	-0.150575	0.465212	-0.247685	0	0	-0.147274	0.0452134	-0.00756592	0.324114	-0.356422	0.327197	1.35127	1.5708	0	0	0.173637	-0.127118	0.0988492	1.35129	1.5708	0	0
20.13	2.99436	1.48073	-1.25149	0.568491	1.29187	1.08816	0.101351	-0.00636756	-0.12439	0.363473	-0.444974	0	0	-0.0586806	-0.0494406	-0.148176	0.480224	-0.244456	0	0	-0.141721	0.0449155	-0.00791838	0.323276	-0.353701	0.330946	1.3504	1.5708	0	0	0.171638	-0.130252	0.0963861	1.35148	1.5708	0	0
20.14	2.988	1.48066	-1.2429	0.569967	1.29531	1.08777	0.0950573	-0.00419057	-0.133271	0.358057	-0.442764	0	0	-0.0537875	-0.0537824	-0.14491	0.494531	-0.242185	0	0	-0.140233	0.044543	-0.00804048	0.322745	-0.351338	0.333262	1.35052	1.5708	0	0	0.172182	-0.13409	0.0961997	1.3512	1.5708	0	0
20.15	2.99193	1.4789	-1.24467	0.571524	1.29861	1.08758	0.0872066	-0.00243311	-0.142459	0.353756	-0.440381	0	0	-0.0514418	-0.0578194	-0.142183	0.507643	-0.240543	0	0	-0.141041	0.0435814	-0.00728405	0.32214	-0.349228	0.334594	1.3512	1.5708	0	0	0.174403	-0.138632	0.0979069	1.35036	1.5708	0	0
20.16	3.0015	1.47613	-1.25243	0.573166	1.30182	1.08756	0.0781746	-0.000606738	-0.150157	0.349374	-0.438316	0	0	-0.0511454	-0.0615043	-0.139663	0.519066	-0.239429	0	0	-0.14339	0.042229	-0.00569887	0.321561	-0.347377	0.335143	1.35231	1.5708	0	0	0.17764	-0.143738	0.101018	1.3493	1.5708	0	0
20.17	3.00683	1.47344	-1.25604	0.574782	1.30504	1.08761	0.0687376	0.00201098	-0.155842	0.343481	-0.436782	0	0	-0.0516426	-0.0653659	-0.137098	0.528662	-0.238412	0	0	-0.145637	0.0411198	-0.00363678	0.320393	-0.345915	0.335156	1.35375	1.5708	0	0	0.180952	-0.149007	0.10513	1.34816	1.5708	0	0
20.18	3.0107	1.47134	-1.25861	0.576288	1.30826	1.08761	0.0598271	0.00461065	-0.159048	0.336699	-0.435393	0	0	-0.0526055	-0.0686448	-0.134448	0.536417	-0.237089	0	0	-0.147184	0.0400392	-0.00107135	0.318739	-0.34516	0.335169	1.35556	1.5708	0	0	0.183956	-0.153936	0.109559	1.34697	1.5708	0	0
20.19	3.01215	1.46949	-1.25851	0.577678	1.31133	1.08757	0.0515817	0.00744589	-0.161227	0.330557	-0.433286	0	0	-0.0536677	-0.0716719	-0.130669	0.543112	-0.235304	0	0	-0.148619	0.039208	0.00128336	0.317104	-0.34464	0.334994	1.35753	1.5708	0	0	0.187119	-0.158593	0.114013	1.34578	1.5708	0	0
20.2	3.01101	1.46854	-1.25621	0.578955	1.31424	1.08742	0.0450053	0.0102355	-0.162155	0.3256	-0.430679	0	0	-0.0539315	-0.0740934	-0.12593	0.549333	-0.233127	0	0	-0.149307	0.0385458	0.00379875	0.315491	-0.344402	0.334738	1.35976	1.5708	0	0	0.190092	-0.162721	0.118092	1.3447	1.5708	0	0
20.21	3.00224	1.46951	-1.24719	0.580271	1.31712	1.08709	0.0414613	0.0133376	-0.161281	0.321878	-0.428227	0	0	-0.0521411	-0.0764049	-0.121133	0.555293	-0.230869	0	0	-0.147911	0.0375933	0.0069362	0.313109	-0.344036	0.334111	1.36207	1.5708	0	0	0.192037	-0.165895	0.120933	1.34412	1.5708	0	0
20.22	2.95837	1.47737	-1.20495	0.581891	1.32007	1.08602	0.047362	0.0179335	-0.154923	0.319446	-0.425206	0	0	-0.041353	-0.0798855	-0.117144	0.56334	-0.227263	0	0	-0.137928	0.0369124	0.0125292	0.307583	-0.343794	0.332135	1.36484	1.5708	0	0	0.192326	-0.168488	0.124191	1.34298	1.5708	0	0
20.23	2.94532	1.47898	-1.19258	0.58315	1.32282	1.08572	0.0452066	0.0210135	-0.152946	0.316184	-0.422743	0	0	-0.0388326	-0.0817762	-0.1132	0.568453	-0.22541	0	0	-0.13584	0.0362255	0.0161616	0.305391	-0.343918	0.332269	1.367	1.5708	0	0	0.193604	-0.170991	0.126185	1.3424	1.5708	0	0
20.24	2.934	1.48122	-1.1819	0.584262	1.32548	1.08543	0.0440259	0.0233288	-0.151486	0.314059	-0.420027	0	0	-0.0356938	-0.0828804	-0.10904	0.572658	-0.223641	0	0	-0.133075	0.0352269	0.0196082	0.302922	-0.343878	0.332052	1.36888	1.5708	0	0	0.194713	-0.172984	0.127885	1.34138	1.5708	0	0
20.25	2.90086	1.49115	-1.14994	0.585333	1.32811	1.08439	0.052508	0.0237939	-0.147196	0.314194	-0.416635	0	0	-0.0233812	-0.0818493	-0.103325	0.577136	-0.220257	0	0	-0.121375	0.03213	0.0244834	0.296632	-0.343519	0.329384	1.37107	1.5708	0	0	0.194907	-0.174788	0.13125	1.33911	1.5708	0	0
20.26	2.89546	1.49277	-1.14464	0.58626	1.33065	1.08431	0.0496438	0.0254667	-0.146451	0.309934	-0.416003	0	0	-0.0216605	-0.0825759	-0.100016	0.577269	-0.218199	0	0	-0.11933	0.0307185	0.0272937	0.294093	-0.343091	0.328812	1.37237	1.5708	0	0	0.19619	-0.176943	0.133488	1.3377	1.5708	0	0
20.27	2.895	1.49432	-1.14404	0.587126	1.33316	1.08433	0.0462964	0.0266861	-0.14625	0.305238	-0.415734	0	0	-0.0208992	-0.0828572	-0.0966207	0.57401	-0.21622	0	0	-0.117164	0.0288919	0.0300202	0.291422	-0.342618	0.328012	1.37313	1.5708	0	0	0.197595	-0.17936	0.136502	1.33577	1.5708	0	0
20.28	2.89867	1.49595	-1.14738	0.587917	1.3356	1.08443	0.0430233	0.0273813	-0.146499	0.300631	-0.41597	0	0	-0.0204065	-0.0829212	-0.0935385	0.568221	-0.21461	0	0	-0.114646	0.0268527	0.0323819	0.288965	-0.342121	0.327724	1.37311	1.5708	0	0	0.198995	-0.181862	0.139847	1.33328	1.5708	0	0
20.29	2.90544	1.49774	-1.15359	0.588617	1.33795	1.08459	0.0402275	0.0274399	-0.147383	0.296269	-0.416884	0	0	-0.0200968	-0.0826826	-0.0902637	0.55982	-0.21338	0	0	-0.112056	0.0247589	0.0338283	0.287297	-0.341466	0.328413	1.37233	1.5708	0	0	0.200189	-0.184383	0.142619	1.33083	1.5708	0	0
20.3	2.9173	1.49894	-1.16482	0.589211	1.34019	1.08484	0.0369494	0.027248	-0.14912	0.292174	-0.417812	0	0	-0.0204913	-0.0824322	-0.0874585	0.549771	-0.212462	0	0	-0.110573	0.0228065	0.0342936	0.286968	-0.340842	0.330249	1.37123	1.5708	0	0	0.200977	-0.186774	0.144201	1.32911	1.5708	0	0
20.31	2.96881	1.48891	-1.21522	0.589619	1.34161	1.08626	0.021318	0.0283015	-0.153377	0.287165	-0.418521	0	0	-0.0326623	-0.0838915	-0.0862913	0.538656	-0.211336	0	0	-0.124583	0.0241739	0.0326006	0.293886	-0.341027	0.334741	1.37059	1.5708	0	0	0.204907	-0.18786	0.142587	1.32859	1.5708	0	0
20.32	2.98831	1.4985	-1.23328	0.590151	1.34396	1.08585	0.0284632	0.0240688	-0.156257	0.287939	-0.415025	0	0	-0.0226065	-0.079927	-0.0809106	0.530055	-0.210002	0	0	-0.114615	0.017709	0.0331967	0.288123	-0.338053	0.331517	1.37051	1.5708	0	0	0.203573	-0.189305	0.143425	1.32699	1.5708	0	0
20.33	2.93849	1.51099	-1.18419	0.590761	1.34637	1.08478	0.0419629	0.0235849	-0.155226	0.292787	-0.401055	0	0	-0.00628968	-0.0806968	-0.0805146	0.526366	-0.203949	0	0	-0.0994284	0.0146104	0.0395818	0.276744	-0.337244	0.322272	1.37428	1.5708	0	0	0.203843	-0.188945	0.148817	1.32307	1.5708	0	0
20.34	2.98589	1.50789	-1.22987	0.591246	1.34783	1.08544	0.0337222	0.0234462	-0.157457	0.286174	-0.416235	0	0	-0.00824115	-0.0808137	-0.0776228	0.519168	-0.209782	0	0	-0.102668	0.0162373	0.0205897	0.302322	-0.334139	0.357783	1.35614	1.5708	0	0	0.190488	-0.193158	0.126153	1.33204	1.5708	0	0
20.35	3.02228	1.50795	-1.26489	0.59164	1.34935	1.08578	0.0307991	0.0223467	-0.159595	0.28546	-0.415338	0	0	-0.00529612	-0.0804935	-0.0761018	0.515837	-0.212484	0	0	-0.104185	0.0143325	0.0173418	0.306487	-0.332799	0.363216	1.35345	1.5708	0	0	0.189667	-0.194983	0.123047	1.33296	1.5708	0	0
20.36	3.06277	1.50667	-1.30386	0.591898	1.35073	1.08624	0.0268105	0.021012	-0.161718	0.284722	-0.41509	0	0	-0.00307665	-0.0802682	-0.0747415	0.515047	-0.214655	0	0	-0.107421	0.0129084	0.013934	0.311359	-0.332194	0.369016	1.35117	1.5708	0	0	0.189334	-0.196686	0.120239	1.33385	1.5708	0	0
20.37	3.12689	1.50083	-1.36521	0.591833	1.35192	1.08721	0.0176402	0.0182148	-0.16692	0.283594	-0.415044	0	0	-0.00623166	-0.07866	-0.0718749	0.514176	-0.216753	0	0	-0.116053	0.0114228	0.00876509	0.31839	-0.332028	0.376119	1.34868	1.5708	0	0	0.190005	-0.198586	0.117401	1.33475	1.5708	0	0
20.38	-3.12506	1.50017	-1.39533	0.591946	1.35319	1.08755	0.0155337	0.0165791	-0.167788	0.284251	-0.414145	0	0	-0.00281214	-0.0782036	-0.0701256	0.515914	-0.218067	0	0	-0.118068	0.0105105	0.00595299	0.322496	-0.332236	0.381642	1.34714	1.5708	0	0	0.189689	-0.200177	0.115451	1.33503	1.5708	0	0
20.39	-3.09663	1.49894	-1.42314	0.592038	1.35436	1.0879	0.0130659	0.0151289	-0.167884	0.285263	-0.412893	0	0	0.000116536	-0.0780169	-0.0690397	0.518191	-0.219586	0	0	-0.120513	0.0100076	0.00365296	0.326775	-0.332917	0.387398	1.34588	1.5708	0	0	0.189724	-0.201791	0.113969	1.33505	1.5708	0	0
20.4	-3.07273	1.49742	-1.44651	0.592107	1.35548	1.08824	0.0103117	0.0139925	-0.167866	0.286299	-0.411444	0	0	0.00237805	-0.0779698	-0.0673852	0.519578	-0.221324	0	0	-0.122985	0.00994753	0.00149029	0.331013	-0.333942	0.393315	1.34483	1.5708	0	0	0.189875	-0.203374	0.112764	1.33485	1.5708	0	0
